<svg width="14" height="14" viewBox="0 0 14 14" fill="none" xmlns="http://www.w3.org/2000/svg">
<path d="M7.00001 1.16667C5.76233 1.16667 4.57535 1.65833 3.70018 2.5335C2.82501 3.40867 2.33334 4.59566 2.33334 5.83333C2.33334 8.98333 6.44584 12.5417 6.62084 12.6933C6.7265 12.7837 6.86097 12.8334 7.00001 12.8334C7.13905 12.8334 7.27352 12.7837 7.37918 12.6933C7.58334 12.5417 11.6667 8.98333 11.6667 5.83333C11.6667 4.59566 11.175 3.40867 10.2998 2.5335C9.42467 1.65833 8.23769 1.16667 7.00001 1.16667ZM7.00001 11.4625C5.75751 10.2958 3.50001 7.78167 3.50001 5.83333C3.50001 4.90508 3.86876 4.01484 4.52514 3.35846C5.18151 2.70208 6.07175 2.33333 7.00001 2.33333C7.92827 2.33333 8.81851 2.70208 9.47488 3.35846C10.1313 4.01484 10.5 4.90508 10.5 5.83333C10.5 7.78167 8.24251 10.3017 7.00001 11.4625ZM7.00001 3.5C6.53852 3.5 6.08739 3.63685 5.70368 3.89324C5.31996 4.14963 5.0209 4.51405 4.84429 4.94041C4.66769 5.36677 4.62148 5.83592 4.71151 6.28855C4.80154 6.74117 5.02377 7.15693 5.35009 7.48325C5.67642 7.80957 6.09218 8.0318 6.5448 8.12183C6.99742 8.21187 7.46658 8.16566 7.89294 7.98905C8.3193 7.81245 8.68371 7.51338 8.9401 7.12966C9.19649 6.74595 9.33334 6.29482 9.33334 5.83333C9.33334 5.2145 9.08751 4.621 8.64993 4.18342C8.21234 3.74583 7.61885 3.5 7.00001 3.5ZM7.00001 7C6.76926 7 6.5437 6.93158 6.35184 6.80338C6.15999 6.67519 6.01045 6.49298 5.92215 6.2798C5.83385 6.06662 5.81074 5.83204 5.85576 5.60573C5.90078 5.37942 6.01189 5.17154 6.17505 5.00838C6.33821 4.84522 6.54609 4.7341 6.7724 4.68908C6.99872 4.64407 7.23329 4.66717 7.44647 4.75547C7.65965 4.84378 7.84186 4.99331 7.97006 5.18517C8.09825 5.37703 8.16668 5.60259 8.16668 5.83333C8.16668 6.14275 8.04376 6.4395 7.82497 6.65829C7.60617 6.87708 7.30943 7 7.00001 7Z" fill="#141414"/>
</svg>
